<svg xmlns="http://www.w3.org/2000/svg" width="1000" height="1000" viewBox="0 0 1000 1000"><path fill-rule="evenodd" clip-rule="evenodd" fill="#050000" d="M876.59 933.666h-747.281c-31.735 0-57.418-25.65-57.418-57.364v-747.335c0-31.768 25.683-57.418 57.418-57.418h747.281c31.735 0 57.418 25.65 57.418 57.418v747.335c0 31.714-25.683 57.364-57.418 57.364zm-114.609-460.017c0-31.768-25.683-57.484-57.418-57.484h-115.401v-113.208c0-31.756-25.684-57.418-57.418-57.418h-57.589c-31.769 0-57.418 25.662-57.418 57.418v113.208h-115c-31.746 0-57.418 25.716-57.418 57.484v57.753c0 31.769 25.672 57.418 57.418 57.418h115v116.41c0 31.714 25.649 57.58 57.418 57.58h57.589c31.734 0 57.418-25.866 57.418-57.58v-116.41h115.401c31.735 0 57.418-25.649 57.418-57.418v-57.753z"/></svg>