<svg xmlns="http://www.w3.org/2000/svg" width="1000" height="1000" viewBox="0 0 1000 1000"><path fill-rule="evenodd" clip-rule="evenodd" fill="#050000" d="M848.309 906.686h-232.547c-32.088 0-58.043-26.167-58.043-58.254v-232.374c0-32.087 25.955-58.029 58.043-58.029h232.547c32.125 0 58.057 25.942 58.057 58.029v232.374c-.001 32.087-25.932 58.254-58.057 58.254zm-57.621-232.573h-116.099v116.263h116.099v-116.263zm57.621-232.384h-232.547c-32.088 0-58.043-25.932-58.043-58.02v-232.577c0-32.087 25.955-58.05 58.043-58.05h232.547c32.125 0 58.057 25.962 58.057 58.05v232.578c-.001 32.087-25.932 58.019-58.057 58.019zm-464.324 464.957h-232.372c-32.093 0-58.224-26.167-58.224-58.254v-232.374c0-32.087 26.13-58.029 58.224-58.029h232.373c32.089 0 58.05 25.942 58.05 58.029v232.374c-.001 32.087-25.962 58.254-58.051 58.254zm0-464.957h-232.372c-32.093 0-58.224-25.932-58.224-58.02v-232.577c0-32.087 26.13-58.05 58.224-58.05h232.373c32.089 0 58.05 25.962 58.05 58.05v232.578c-.001 32.087-25.962 58.019-58.051 58.019z"/></svg>