<svg xmlns="http://www.w3.org/2000/svg" width="1000" height="1000" viewBox="0 0 1000 1000"><path fill="#040000" d="M906.416 716.116c-15.168 15.168-39.715 15.168-55.017 0l-384.788-384.922c-15.168-15.168-15.168-39.715 0-54.883 15.208-15.167 39.857-15.167 55.026 0l384.779 384.791c15.208 15.197 15.208 39.847 0 55.014zm-384.779-384.922l-384.832 384.922c-15.167 15.168-39.816 15.168-54.985 0-15.167-15.167-15.167-39.817 0-55.015l384.791-384.791c15.208-15.167 39.857-15.167 55.026 0 15.168 15.169 15.168 39.715 0 54.884z"/></svg>