<svg xmlns="http://www.w3.org/2000/svg" width="1000" height="1000" viewBox="0 0 1000 1000"><g fill="#050303"><path d="M199.586 360.973l260.724 215.41c23.946 19.927 63.015 19.927 86.969 0l260.73-215.41c23.939-19.749 23.939-51.947 0-71.874h-121.249v-65.032c0-33.821-27.369-61.403-61.393-61.403h-246.445c-33.968 0-61.338 27.582-61.338 61.403v65.032h-117.998c-24.008 19.927-24.008 52.126 0 71.874zM930.63 703.983v-171.899h-54.985v121.105c-1.798-.158-3.608-.281-5.461-.281h-737.642c-3.443 0-6.798.356-10.083.904v-121.728h-55.158v243.623h3.841v.178c0 33.859 27.548 61.407 61.4 61.407h737.642c33.859 0 61.406-27.548 61.406-61.407v-61.393c0-3.594-.37-7.093-.96-10.509z"/></g></svg>