<svg xmlns="http://www.w3.org/2000/svg" width="1000" height="1000" viewBox="0 0 1000 1000"><path d="M811.229 641.235l-263.469-217.686c-24.202-20.138-63.691-20.138-87.893 0l-263.476 217.686c-24.202 20.166-24.202 52.489 0 72.662h118.999v65.69c0 34.208 27.906 62.043 62.297 62.043h249.043c34.15 0 62.05-27.835 62.05-62.043v-65.69h122.449c24.201-20.172 24.201-52.496 0-72.662zm124.946-419.302c0-34.175-27.899-62.046-62.05-62.046h-745.478c-34.151 0-62.05 27.871-62.05 62.046v.184h-3.888v246.192h55.742v-122.978c3.323.557 6.718.917 10.196.917h745.478c1.849 0 3.669-.12 5.461-.279v122.339h55.559v-173.16c.649-3.563 1.03-7.211 1.03-10.95v-62.265z" fill="#070606"/></svg>