<svg xmlns="http://www.w3.org/2000/svg" width="1000" height="1000" viewBox="0 0 1000 1000"><path fill="#0B0506" d="M814.846 184.361c-73.457-77.245-178.923-114.144-308.828-114.144-121.397 0-228.125 37.466-312.602 119.4-84.683 81.965-123.033 186.339-123.033 305.744 0 126.112 40.893 228.497 122.852 307.551 81.755 79.24 185.249 118.709 310.069 118.709 29.671 0 59.88-1.297 90.276-3.814 30.575-2.723 60.612-7.228 90.275-13.73v-87.587c-28.212 7.781-58.062 7.986-89.729 11.588-31.488 3.601-61.698 5.41-90.275 5.41-106.559 0-179.289-20.625-245.133-87.009-66.028-66.595-97.692-129.896-97.692-237.359 0-99.865 39.801-183.46 107.821-253.656 67.841-70.172 133.344-95.513 237.717-95.513 109.997 0 178.017 26.402 236.812 91.365 58.797 64.939 88.109 142 88.109 248.396 0 29.845-21.351 63.307-27.137 100.042-5.778 36.729-22.23 47.038-35.629 70.18l-66.952-.52v-400.008h-95.694v23.502c-18.639-9.747-37.266-17.725-55.562-23.502-18.449-5.806-40.313-8.683-65.657-8.683-54.623 0-103.289 21.143-145.811 63.874-42.522 42.679-63.874 102.202-63.874 178.717 0 76.371 17.357 134.799 51.926 174.966 34.569 40.159 79.062 60.247 133.344 60.247 34.364 0 61.312-5.445 81.392-16.299 19.9-10.864 41.617-25.687 65.325-44.136l13.218 56.62h222.869c24.953-35.296 44.153-73.799 57.737-115.962 13.364-42.155 20.054-85.948 20.054-131.164.002-123.578-32.902-225.955-106.188-303.225zm-269.932 446.158c-20.984 9.413-42.334 14.096-63.685 14.096-40.322 0-69.633-13.73-87.92-41.412-18.451-27.699-19.722-43.786-19.722-95.899 0-57.704 4.353-85.561 28.758-113.052 24.26-27.495 56.465-41.28 96.265-41.28 18.09 0 35.269 2.022 51.902 6.165 16.485 3.968 34.747 10.68 54.468 20.268v214.395c-18.996 15-39.074 27.314-60.066 36.719z"/></svg>