<svg xmlns="http://www.w3.org/2000/svg" width="1000" height="1000" viewBox="0 0 1000 1000"><path fill="#060606" d="M315.538 804.106c-10.301 0-18.585-8.322-18.585-18.564v-125.299c0-10.263 8.284-18.585 18.585-18.585 10.242 0 18.574 8.322 18.574 18.585v125.299c0 10.242-8.332 18.564-18.574 18.564zm70.341-40.601c-5.141 8.903-16.528 11.91-25.384 6.809l-108.509-62.679c-8.895-5.102-11.95-16.47-6.8-25.374 5.151-8.846 16.489-11.911 25.384-6.751l108.51 62.621c8.856 5.14 11.901 16.489 6.799 25.374zm-6.799-55.87l-108.51 62.679c-8.895 5.102-20.232 2.095-25.384-6.809-5.15-8.885-2.095-20.233 6.8-25.374l108.509-62.621c8.895-5.16 20.243-2.095 25.384 6.79 5.102 8.865 2.057 20.233-6.799 25.335zm332.666-105.28h-66.714l.155-3.646c0-17.983-3.608-40.253-10.165-55.831 34.607.136 61.806.214 76.724.214 62.678 0 113.484-40.428 113.484-103.097 0-62.718-50.807-107.462-113.484-107.462-8.672 0-17.091 1.097-25.161 2.93 2.657-12.261 4.151-24.947 4.151-38.032 0-98.082-79.497-177.589-177.551-177.589-92.854 0-168.908 71.263-176.804 162.06-6.935-1.047-13.996-1.784-21.241-1.784-76.753 0-139.034 57.043-139.034 133.796 0 76.801 62.281 128.654 139.034 128.654 15.306 0 40.301.098 75.278.175-6.81 15.83-10.641 37.596-10.641 55.967 0 1.202.175 2.425.213 3.646h-64.851c-107.413 0-194.506-80.972-194.506-188.442 0-98.17 72.834-173.923 167.337-187.183 32.057-93.679 120.672-161.148 225.214-161.148 124.553 0 226.611 95.687 237.106 217.503 73.93 17.439 129.004 77.626 129.004 156.91.002 92.542-74.995 162.359-167.548 162.359zm-200.606 55.754c-9.816 0-17.799-7.993-17.799-17.809v-120.022c0-9.797 7.982-17.789 17.799-17.789 9.815 0 17.789 7.992 17.789 17.789v120.022c0 9.816-7.974 17.809-17.789 17.809zm67.373-38.915c-4.928 8.517-15.83 11.426-24.288 6.499l-103.931-60.002c-8.545-4.889-11.465-15.791-6.537-24.287 4.927-8.517 15.781-11.446 24.336-6.499l103.921 60.001c8.458 4.889 11.387 15.791 6.499 24.288zm-6.538-53.503l-103.931 60.002c-8.506 4.927-19.36 2.018-24.287-6.499-4.928-8.497-1.97-19.399 6.498-24.288l103.912-60.001c8.574-4.947 19.418-2.018 24.346 6.499 4.888 8.496 1.959 19.399-6.538 24.287zm140.877 238.415c-10.301 0-18.585-8.322-18.585-18.564v-125.299c0-10.263 8.284-18.585 18.585-18.585 10.242 0 18.564 8.322 18.564 18.585v125.299c0 10.242-8.322 18.564-18.564 18.564zm70.302-40.601c-5.122 8.903-16.489 11.91-25.355 6.809l-108.499-62.679c-8.885-5.102-11.95-16.47-6.809-25.374 5.102-8.846 16.489-11.911 25.393-6.751l108.441 62.621c8.924 5.14 11.97 16.489 6.829 25.374zm-6.829-55.87l-108.479 62.679c-8.865 5.102-20.253 2.095-25.354-6.809-5.142-8.885-2.076-20.233 6.809-25.374l108.461-62.621c8.904-5.16 20.271-2.095 25.394 6.79 5.139 8.865 2.093 20.233-6.831 25.335zm-265.185 228.58c-9.816 0-17.799-7.973-17.799-17.789v-120.023c0-9.815 7.982-17.789 17.799-17.789 9.815 0 17.789 7.974 17.789 17.789v120.022c0 9.817-7.974 17.79-17.789 17.79zm67.373-38.896c-4.928 8.497-15.83 11.427-24.288 6.499l-103.931-60.021c-8.545-4.889-11.465-15.791-6.537-24.288 4.927-8.497 15.781-11.426 24.336-6.499l103.921 60.002c8.458 4.889 11.387 15.792 6.499 24.307zm-6.538-53.521l-103.931 60.021c-8.506 4.928-19.36 1.998-24.287-6.499-4.928-8.516-1.97-19.418 6.498-24.307l103.912-60.002c8.574-4.927 19.418-1.998 24.346 6.499 4.888 8.497 1.959 19.399-6.538 24.288z"/></svg>