<svg xmlns="http://www.w3.org/2000/svg" width="1000" height="1000" viewBox="0 0 1000 1000"><g fill-rule="evenodd" clip-rule="evenodd" fill="#0E0A0A"><path d="M872.756 208.231h-489.328c7.551 21.351 12.428 44.145 12.428 68.164 0 112.861-91.504 204.365-204.365 204.365-24.048 0-46.799-4.853-68.15-12.532v319.083c0 37.629 30.535 68.06 68.15 68.06h681.266c37.629 0 68.06-30.431 68.06-68.06v-510.916c-.002-37.629-30.432-68.164-68.061-68.164zm-.096 579.08l-681.17-.096h-.132s.132-148.195.132-238.305c150.253 0 272.535-122.263 272.535-272.516h408.73l-.095 510.917zM327.705 276.395c0-75.349-60.97-136.319-136.215-136.319s-136.214 60.97-136.214 136.319c0 75.232 60.97 136.216 136.214 136.216 75.245 0 136.215-60.985 136.215-136.216zm-204.274 0c0-37.629 30.534-68.164 68.059-68.164s68.06 30.535 68.06 68.164c0 37.512-30.534 68.046-68.06 68.046-37.525 0-68.059-30.535-68.059-68.046z"/></g></svg>