<svg xmlns="http://www.w3.org/2000/svg" width="1000" height="1000" viewBox="0 0 1000 1000"><path d="M926.73 412.284c0-13.703-2.701-27.534-8.089-40.488-12.951-31.271-40.097-54.477-73.199-62.383 0 0-19.634-4.668-45.985-10.929l22.989 22.983c9.887 9.889 15.45 23.183 15.45 37.22 0 14.037-5.563 27.327-15.45 37.219l-13.32 13.312 12.057 2.856-128.037 206.464 19.784 204.271-212.208-104.671-1.355.67-4.927 4.918c-10.072 10.256-23.29 15.252-36.559 15.419l-170.594 83.664 20.5-206.797-.318-.484-73.96-73.945c-10.253-10.256-15.456-23.748-15.456-37.244 0-6.858 1.313-13.701 3.957-20.134l-46.943-72.129 201.953-48.37 123.167-192.24.534 2.162 95.252 145.196c41.392-41.387 74.687-74.674 74.687-74.674.527-.531 1.105-.992 1.648-1.498-31.169-47.555-72.621-110.698-78.427-119.557-15.116-29.104-43.343-50.327-76.596-55.735-5.772-.9-11.328-1.443-17.099-1.443-35.595 0-69.234 18.002-88.834 48.549 0 0-69.774 108.974-100.167 156.441-52.309 12.597-160.743 38.506-160.743 38.506-33.274 8.089-60.605 31.811-73.379 63.646-5.048 12.588-7.546 25.882-7.546 39.016 0 20.145 5.743 40.13 17.074 57.565 0 0 83.63 128.194 112.583 172.798-4.867 49.81-16.923 169.913-16.923 169.913-.359 3.456-.543 7.036-.543 10.458 0 34.332 16.923 66.892 45.333 86.666 17.978 12.416 39.021 18.698 60.245 18.698 15.814 0 31.651-3.396 46.382-10.608 0 0 110.059-53.933 166.876-81.798 56.819 28.024 165.614 81.647 165.614 81.647 14.756 7.362 30.751 10.941 46.771 10.941 21.04 0 42.055-6.282 59.882-18.67 28.77-19.81 45.668-52.545 45.668-87.053 0-3.431-.185-6.676-.545-10.073 0 0-11.695-120.13-16.354-168.683 27.329-44.062 109.338-176.22 109.338-176.22 10.425-16.919 15.812-35.981 15.812-55.372zm-578.688 14.733l-77.319 77.321 109.335 109.331 2.249-2.25 74.889 75.062 328.006-327.794-77.323-77.348-252.841 252.84z" fill="#060202"/></svg>