<svg xmlns="http://www.w3.org/2000/svg" width="1000" height="1000" viewBox="0 0 1000 1000"><g fill-rule="evenodd" clip-rule="evenodd" fill="#050404"><path d="M384.939 855.041c7.848 2.532 15.798 4.734 23.811 6.734"/><path d="M924.271 500.438c0-234.47-190.052-424.528-424.521-424.528s-424.521 190.058-424.521 424.528c0 46.906 7.722 91.994 21.785 134.197 2.114-4.379 18.532-8.278 22.405-11.443 6.292-5.139.76-8.328 5.494-8.328 5.95 0 11.215-.051 14.317 3.771 1.861 2.279-10.013 5.975-10.013 11.912 0 4.519 10.215 21.76 6.05 25.557-3.417 3.139-7.785-7.013-12.342-4.658-6 3.113-12.342 5.43-17.304 6.684 27.292 68.152 71.747 127.558 128 172.925 3.025-1.05 6.304-1.886 9.76-2.468 3.456-.57 7.114 12.076 10.912 12.076 29.633 0-2.114-15.975 17.101-10.785 5.342 1.443-2.937 16.48.772 19.038 5.696 3.924 35.051-4.013 35.051 1.468 0 2.633-13.772 5.152-15.241 7.494-1.848 2.937-4.734 5.582-8.393 7.822 63.317 37.583 137.191 59.216 216.166 59.216 74.279 0 144.064-19.114 204.799-52.633.797-4.481 6.873-7.95 14.734-8.481 122.874-74.381 204.989-209.281 204.989-363.364zm-361.572 411.515c6.823-6.418-16.975-4.329-16.975-9.646-25.443 6.456-5.455-15.14-29.949-9.646-5.189 1.164 21.557-26.823 29.949-22.596 28.57 14.393 2.354 8.355.481 18.178 9.392 0 34.025 1.62 33.468 14.063-.239 5.318-27.327 19.369-16.974 9.647zm31.039-22.089c-9.393 0-20.52-4.316-14.064-16.633 2.469-4.722 7.938-12.165 16.988-9.646 38.127 10.62.316 6.911.316 12.24.001 5.318 37.811 14.039-3.24 14.039zm-93.988-16.784c-31.102 0-61.583-3.912-91-11.305.215.607.646 1.165.646 1.811 0 3.582-3.203 7.886-8.557 8.367-6.937.633-5.354-11.696-8.43-11.696-9.367 0-7.469 16.114-16.975 3.329-2.253-3.025 3.937-6.975 9.506-8.545-5.494-1.784-10.937-3.67-16.342-5.695-5.519 4.684-14.912-5.19-25.595-5.19-5.266 0-10.215.481-14.544.886-9.671.873-16.241-11.709-16.241-18.367 0-4.721 3.342 3.963 8.722.823-30.734-16.86-59.267-38.114-84.735-63.57-68.076-68.114-106.494-157.976-108.912-253.888-6.899 1.229-15.874-2.202-23.886-10.993-14.899-16.323-23.38-7.823-23.38-27.127 0-19.31 23.874-41.981 24.443-18.608.494 20.292 13.304 23.659 23.102 27.715 3.848-75.494 30.114-146.849 75.557-206.33 10.089-13.215 21.127-25.842 33.076-37.804 70.393-70.348 163.988-109.146 263.546-109.146s193.152 38.798 263.546 109.146c70.342 70.393 109.14 163.982 109.14 263.546 0 99.513-38.798 193.109-109.14 263.489-70.395 70.353-163.989 109.152-263.547 109.152z"/></g></svg>