<svg xmlns="http://www.w3.org/2000/svg" width="1000" height="1000" viewBox="0 0 1000 1000"><path fill="#020202" d="M561.031 267.848c-10.854 5.183-24.196-.072-29.787-11.789l-25.258-46.932c-5.636-11.707-1.389-25.421 9.466-30.64 10.854-5.191 24.196.118 29.787 11.835l25.303 46.886c5.591 11.753 1.38 25.458-9.511 30.64zm202.191-50.516l-18.315 50.025c-5.063 11.998-18.115 17.916-29.205 13.224-11.073-4.646-16.01-18.16-10.946-30.113l18.315-50.025c5.064-11.999 18.17-17.916 29.224-13.224 11.108 4.646 16.009 18.16 10.927 30.113zm-143.398 607.171h-371.173c-100.551 0-182.043-83.824-182.043-184.366 0-91.901 66.962-167.675 155.441-180.045 30.032-87.69 114.092-153.146 211.947-153.146 116.542 0 212.074 91.856 221.912 205.875 69.212 16.318 120.745 78.307 120.745 152.492.001 86.638-70.227 159.19-156.829 159.19zm0-265.413c-8.114 0-15.974 1.017-23.579 2.741 2.523-11.472 3.921-23.397 3.921-35.596 0-91.765-74.395-168.528-166.169-168.528-86.873 0-159.271 69.049-166.613 154.008-6.535-.98-13.097-1.67-19.912-1.67-71.862 0-128.958 58.229-128.958 130.092s58.275 130.093 130.138 130.093c57.74 0 314.703.163 371.173.163 58.647 0 106.223-46.396 106.223-105.079-.001-58.63-47.576-106.224-106.224-106.224zm159.898 12.325c-8.731-14.902-19.586-28.443-32.11-40.314 8.113-16.736 12.815-35.423 12.815-55.254 0-70.064-56.815-126.87-126.916-126.87-8.822 0-17.426.898-25.703 2.613-13.886-13.351-29.151-25.222-45.669-35.132 21.781-9.802 45.905-15.348 71.372-15.348 96.548 0 174.763 78.225 174.763 174.736-.001 35.288-10.564 68.106-28.552 95.569zm128.385-206.238l-48.12 22.935c-11.998 5.019-25.466.118-30.113-10.973-4.646-11.1 1.308-24.205 13.251-29.225l48.12-22.889c11.998-5.028 25.467-.082 30.113 10.973 4.647 11.1-1.306 24.205-13.251 29.179zm22.073 200.847c-4.574 11.145-18.042 16.154-30.041 11.218l-50.188-17.935c-12.053-4.937-18.043-17.97-13.469-29.115 4.574-11.09 18.043-16.118 30.022-11.181l50.208 17.934c12.034 4.974 18.042 17.989 13.468 29.079z"/></svg>