<svg xmlns="http://www.w3.org/2000/svg" width="1000" height="1000" viewBox="0 0 1000 1000"><path fill-rule="evenodd" clip-rule="evenodd" fill="#050000" d="M888.297 291.388l-194.601 134.352c-74.055 28.027-38.011 66.067-38.011 66.067l38.011 32.038c26.281 30.036-7.975 74.29-7.975 74.29-20.023 36.033-58.046 10.013-58.046 10.013l-242.683-242.666c-5.994-24.011 30.216-54.047 30.216-54.047 18.022-24.04 54.053 0 54.053 0l42.025 46.044c36.091 32.045 70.3-42.057 70.3-42.057l116.174-174.397c66.222-114.305 146.317-48.053 146.317-48.053l76.294 72.092c42.027 78.273-32.074 126.324-32.074 126.324zm-95.006-123.975c-24.195 0-43.695 19.685-43.695 43.696 0 24.217 19.5 43.699 43.695 43.699 24.04 0 43.695-19.482 43.695-43.699 0-24.012-19.655-43.696-43.695-43.696zm-189.703 520.831l-114.303 126.318c-23.993 22.038-44.017 96.294-44.017 96.294-16.054 20.023-22.051 12.013-22.051 12.013l-60.263-58.247 34.053-74.076-66.091 44.076-38.045-28.058 32.051-60.073-64.089 24.029-28.212-28.045 26.234-56.245-58.249 28.033-48.082-56.055 38.069-56.08-68.104 26.044-34.208-30.037c-38.063-24.04-24.04-40.047-24.04-40.047-4.011-12.205 68.259-20.227 68.259-20.227 26.02-7.985 174.399-140.173 174.399-140.173 26.02-20.185 56.054 6.019 56.054 6.019l246.677 242.476c12.003 18.019-6.042 42.061-6.042 42.061z"/></svg>