<svg xmlns="http://www.w3.org/2000/svg" width="1000" height="1000" viewBox="0 0 1000 1000"><path fill="#060606" d="M738.111 775.15h-92.37c-5.449-18.34-14.944-42.908-26.32-64.449 52.706.217 96.609.347 117.522.347 70.116 0 126.996-55.626 126.996-125.784 0-70.159-56.88-126.995-126.996-126.995-9.71 0-19.097 1.167-28.137 3.266 2.963-13.712 4.649-27.965 4.649-42.552 0-109.737-88.974-198.712-198.711-198.712-103.854 0-188.979 79.74-197.781 181.355-7.786-1.211-15.658-2.043-23.79-2.043-85.903 0-155.543 72.008-155.543 157.911 0 85.925 69.64 153.207 155.543 153.207 23.055 0 72.689.151 131.04.39-11.571 21.844-21.238 45.525-26.731 64.06h-104.309c-120.183 0-217.613-97.409-217.613-217.656 0-109.823 81.427-202.788 187.228-217.613 35.879-104.828 134.976-182.675 251.957-182.675 139.409 0 253.602 109.401 265.323 245.739 82.768 19.486 144.362 93.636 144.362 182.318.001 103.572-82.745 189.886-186.319 189.886zm-216.509 68.732c-30.041 0-54.415-24.352-54.415-54.457 0-30.04 54.415-101.129 54.415-101.129s54.414 71.089 54.414 101.129c0 30.105-24.374 54.457-54.414 54.457z"/></svg>