<?xml version="1.0" encoding="utf-8"?>
<!-- Generator: Adobe Illustrator 14.0.0, SVG Export Plug-In . SVG Version: 6.00 Build 43363)  -->
<!DOCTYPE svg PUBLIC "-//W3C//DTD SVG 1.1//EN" "http://www.w3.org/Graphics/SVG/1.1/DTD/svg11.dtd">
<svg version="1.1" id="图层_1" xmlns="http://www.w3.org/2000/svg" xmlns:xlink="http://www.w3.org/1999/xlink" x="0px" y="0px"
	 width="1000px" height="1000px" viewBox="0 0 1000 1000" enable-background="new 0 0 1000 1000" xml:space="preserve">
<path fill-rule="evenodd" clip-rule="evenodd" fill="#0A0A0A" d="M695.193,200.657L576.734,319.111l99.557,99.546L794.748,300.2
	l73.271,73.262c13.538,13.565,35.571,13.565,49.164,0c2.918-2.918,5.206-6.226,6.871-9.753
	c17.174-12.819,25.95-34.959,20.425-56.457l-37.436-177.555c-2.812-10.262-8.438-19.031-15.813-25.728
	c-6.696-7.377-15.467-13.006-25.731-15.818L687.97,50.716c-21.792-5.575-44.23,3.5-56.958,21.096
	c-3.236,1.625-6.276,3.776-8.979,6.473c-13.593,13.593-13.593,35.626,0,49.219L695.193,200.657z"/>
<path fill-rule="evenodd" clip-rule="evenodd" fill="#0A0A0A" d="M77.115,368.973c1.118,1.573,2.374,3.079,3.784,4.489
	c13.593,13.565,35.626,13.565,49.219,0l73.248-73.256l115.64,115.646l98.012-98.002L301.362,202.199l74.686-74.694
	c13.593-13.593,13.593-35.626,0-49.219c-3.431-3.438-7.409-6-11.655-7.696c-12.74-16.5-34.572-24.547-56.035-18.667L129.131,90.015
	c-9.834,2.521-18.227,7.71-24.649,14.606c-6.911,6.427-12.116,14.83-14.649,24.692L51.795,308.541
	C45.122,332.733,56.203,357.394,77.115,368.973z"/>
<path fill-rule="evenodd" clip-rule="evenodd" fill="#0A0A0A" d="M925.415,632.482c-1.674-4.769-4.417-9.247-8.232-13.063
	c-13.593-13.593-35.626-13.593-49.164,0l-74.707,74.707l-116.5-116.495l-98.019,98.02l116.494,116.5l-73.254,73.254
	c-13.593,13.593-13.593,35.571,0,49.164c1.726,1.726,3.589,3.229,5.552,4.518c12.222,19.71,36.036,30.242,59.124,24.313
	l177.528-37.435c10.29-2.819,19.086-8.47,25.796-15.874c7.342-6.688,12.945-15.438,15.749-25.672l37.436-177.556
	C948.455,666.488,940.847,645.53,925.415,632.482z"/>
<path fill-rule="evenodd" clip-rule="evenodd" fill="#0A0A0A" d="M302.804,792.145L416.498,678.45l-99.557-99.558L203.255,692.573
	l-73.137-73.153c-13.593-13.593-35.626-13.593-49.219,0c-2.334,2.344-4.258,4.943-5.79,7.703
	c-18.776,12.249-28.38,35.555-22.108,58.452l38.093,179.228c2.527,9.916,7.766,18.356,14.728,24.797
	c6.411,6.838,14.771,11.984,24.57,14.501l179.227,38.093c22.615,6.195,45.631-3.063,57.997-21.396
	c3.036-1.595,5.885-3.671,8.433-6.229c13.593-13.593,13.593-35.571,0-49.164L302.804,792.145z"/>
</svg>
