<svg xmlns="http://www.w3.org/2000/svg" width="1000" height="1000" viewBox="0 0 1000 1000"><path fill-rule="evenodd" clip-rule="evenodd" fill="#040000" d="M805.29 926.515h-608.418c-67.213 0-121.764-54.337-121.764-121.54v-365.092c0-67.212 54.551-121.764 121.764-121.764h61.374v-122.591h120.992v122.591h60.548v-122.591h121.158v122.591h63.881v-122.591h121.161v122.591h59.305c67.212 0 121.585 54.552 121.585 121.764v365.091c-.001 67.204-54.374 121.541-121.586 121.541zm4.574-427.93c0-33.635-27.146-60.994-60.781-60.994h-493.926c-33.566 0-60.791 27.359-60.791 60.994v63.465h615.498v-63.465zm0 124.046h-615.498v120.926c0 33.421 27.225 60.791 60.791 60.791h493.926c33.635 0 60.781-27.37 60.781-60.791v-120.926zm-188.362-548.264h124.483v57.258h-124.483v-57.258zm-185.039 0h124.48v57.258h-124.48v-57.258zm-181.717 0h124.492v57.258h-124.492v-57.258z"/></svg>