<svg xmlns="http://www.w3.org/2000/svg" width="1000" height="1000" viewBox="0 0 1000 1000"><path fill="#020202" d="M874.241 433.295c-9.552-16.314-21.438-31.107-35.122-44.14 8.84-18.273 13.962-38.722 13.962-60.416 0-76.651-62.116-138.768-138.748-138.768-9.651 0-19.084.989-28.161 2.848-15.148-14.575-31.819-27.567-49.954-38.405 23.869-10.718 50.271-16.81 78.115-16.81 105.544 0 191.114 85.591 191.114 191.135 0 38.623-11.549 74.457-31.206 104.556zm-174.898 274.233h-79.639l45.9-55.451c14.18.059 25.827.099 33.738.099 64.153 0 116.164-52.011 116.164-116.164 0-64.213-52.011-116.224-116.164-116.224-8.86 0-17.482 1.107-25.749 2.986 2.71-12.538 4.271-25.531 4.271-38.919 0-100.383-81.397-181.781-181.74-181.781-95.063 0-172.961 72.954-181.01 165.921-7.1-1.107-14.298-1.879-21.734-1.879-78.609 0-142.308 63.718-142.308 142.328 0 78.589 63.698 142.268 142.308 142.268 8.722 0 21.873.04 37.832.079l-20.172 56.737h-17.66c-109.954 0-199.124-89.149-199.124-199.084 0-100.521 74.556-183.402 171.3-196.969 32.809-95.894 123.501-164.932 230.568-164.932 127.456 0 231.932 97.931 242.69 222.657 75.683 17.857 132.044 85.67 132.044 166.811.001 94.727-76.769 171.517-171.515 171.517zm-97.14-57.053l-176.204 213.066 46.414-153.264-95.538-.534 71.53-201.299h140.982l-82.248 142.03h95.064v.001zm-333.581 173.395c-22.327 0-40.422-18.095-40.422-40.401 0-22.327 18.095-40.423 40.422-40.423 22.307 0 40.402 18.096 40.402 40.423 0 22.306-18.095 40.401-40.402 40.401zm416.58 0c-22.326 0-40.422-18.095-40.422-40.401 0-22.327 18.096-40.423 40.422-40.423 22.327 0 40.423 18.096 40.423 40.423 0 22.306-18.096 40.401-40.423 40.401z"/></svg>