<svg xmlns="http://www.w3.org/2000/svg" width="1000" height="1000" viewBox="0 0 1000 1000"><path fill="#020202" d="M710.333 636.159h-80.956c-4.828-16.283-13.237-37.394-23.353-56.512 46.762.229 85.745.345 104.309.345 62.221 0 112.718-50.459 112.718-112.747 0-62.23-50.497-112.708-112.718-112.708-8.621 0-16.973 1.034-25.019 2.845 2.662-12.146 4.176-24.76 4.176-37.729 0-97.412-79.002-176.356-176.365-176.356-92.201 0-167.784 70.765-175.629 160.944-6.887-1.082-13.859-1.762-21.101-1.762-76.225 0-138.072 61.799-138.072 138.071 0 76.225 61.848 138.023 138.072 138.023 20.459 0 64.52.173 116.328.384-10.296 19.386-18.821 40.746-23.734 57.201h-92.594c-106.674 0-193.195-88.925-193.195-195.608 0-97.546 72.354-177.956 166.241-191.088 31.82-93.071 119.855-160.082 223.684-160.082 123.685 0 225.062 95.046 235.482 216.021 73.447 17.355 128.178 83.121 128.178 161.845 0 91.942-74.539 168.913-166.452 168.913zm-191.136 58.581c-26.695 0-48.322-21.628-48.322-48.39 0-26.646 48.322-89.729 48.322-89.729s48.284 63.083 48.284 89.729c0 26.762-21.627 48.39-48.284 48.39zm-186.135 120.304c-26.656 0-48.322-21.608-48.322-48.352 0-26.627 48.322-89.748 48.322-89.748s48.322 63.121 48.322 89.748c0 26.744-21.618 48.352-48.322 48.352zm393.459 0c-26.647 0-48.313-21.608-48.313-48.352 0-26.627 48.313-89.748 48.313-89.748s48.332 63.121 48.332 89.748c0 26.744-21.628 48.352-48.332 48.352zm-197.333 95.592c-26.656 0-48.313-21.628-48.313-48.39 0-26.608 48.313-89.729 48.313-89.729s48.313 63.121 48.313 89.729c0 26.762-21.609 48.39-48.313 48.39z"/></svg>