<svg xmlns="http://www.w3.org/2000/svg" width="1000" height="1000" viewBox="0 0 1000 1000"><path fill="#060606" d="M750.12 673.312v-56.955c58.098-7.798 90.188-57.403 90.188-117.573 0-65.631-53.137-118.778-118.727-118.778-9.084 0-17.862 1.103-26.354 3.031 2.817-12.85 4.369-26.108 4.369-39.786 0-102.62-83.207-185.776-185.767-185.776-97.17 0-176.743 74.531-185.011 169.527-7.287-1.103-14.637-1.879-22.251-1.879-80.308 0-145.429 65.12-145.429 145.479 0 70.918 42.032 129.873 109.174 142.774v58.649c-99.313-13.453-167.23-98.395-167.23-201.424 0-102.753 76.185-187.471 175.069-201.331 33.561-97.987 126.26-168.619 235.678-168.619 130.281 0 237.128 100.1 248.09 227.595 77.389 18.26 134.977 87.564 134.977 170.537 0 91.464-57.323 166.486-146.776 174.529zm-375.636 158.574c-22.618 0-40.93-18.372-40.93-40.95v-231.248c0-22.618 18.312-40.99 40.93-40.99 22.639 0 40.95 18.372 40.95 40.99v231.24699999999999c.001 22.579-18.311 40.951-40.95 40.951zm168.476 35.479c0 17.883-14.453 32.336-32.295 32.336-17.903 0-32.355-14.453-32.355-32.336v-53.116c0-.817.163-1.593.225-2.43-.062-.837-.225-1.612-.225-2.47v-131.995c0-17.842 14.452-32.356 32.355-32.356 17.842 0 32.295 14.515 32.295 32.356v131.996c0 .857-.184 1.633-.225 2.47.041.837.225 1.612.225 2.43v53.115zm103.273-35.479c-22.598 0-40.95-18.372-40.95-40.95v-231.248c0-22.618 18.353-40.99 40.95-40.99 22.619 0 40.93 18.372 40.93 40.99v231.24699999999999c0 22.579-18.31 40.951-40.93 40.951z"/></svg>