<svg xmlns="http://www.w3.org/2000/svg" width="1000" height="1000" viewBox="0 0 1000 1000"><path d="M499.879 63.211c-211.122 0-382.252 171.139-382.252 382.227 0 129.081 64.047 243.146 162.04 312.371v131.301c0 26.386 19.447 47.619 43.733 47.619h8.189c-2.508-14.847.901-30.484 11.25-41.973l123.656-39.583c16.947-18.725 44.609-18.725 61.744 0l123.656 39.583c10.373 11.488 13.75 27.126 11.25 41.973h9.813c24.098 0 43.545-21.233 43.545-47.619v-128.801c99.924-68.962 165.416-184.242 165.416-314.871-.001-211.088-170.952-382.227-382.04-382.227zm0 655.457c-150.628 0-273.222-122.567-273.222-273.23 0-150.595 122.593-273.162 273.222-273.162 150.604 0 273.01 122.567 273.01 273.162 0 150.663-122.407 273.23-273.01 273.23zm63.707-341.206l-63.707-97.253-.374-1.063-62.27 97.091-102.245 24.626 67.083 103.095-10.348 104.592 108.154-52.993 107.244 52.993-10-103.317 64.772-104.37z" fill-rule="evenodd" clip-rule="evenodd" fill="#010101"/></svg>