<svg xmlns="http://www.w3.org/2000/svg" width="1000" height="1000" viewBox="0 0 1000 1000"><g fill="#0A0303"><path d="M304.218 387.979c0 42.368 33.725 76.812 75.178 76.812 41.513 0 75.236-34.444 75.236-76.812 0-42.113-33.167-76.324-74.439-76.813-41.222.489-75.975 34.7-75.975 76.813zM675.277 758.802h-55.355c-40.668 0-73.785-33.116-73.785-73.784v-36.872c0-40.73 33.117-73.846 73.785-73.846h55.355v-50.216l-34.315-35.598c-15.656-14.938-26.057-25.928-46.304-25.928-21.21 0-30.39 8.163-46.229 24.351l-114.101 132.954c-5.188 5.384-12.09 8.042-18.969 8.042-6.831 0-13.727-2.658-18.917-8.042l-32.21-30.695c-15.66-16.021-33.837-27.616-54.447-27.616-20.612 0-42.429 12.809-58.088 28.817l-110.708 106.072v-407.995c0-24.41 19.331-44.172 43.201-44.172h501.848c23.813 0 43.205 19.762 43.205 44.172v159.496c6.318-1.769 12.958-2.786 19.832-2.786h18.43c10.849 0 24.192 2.6 36.812 7.068v-195.565c0-48.772-38.683-88.288-86.377-88.288h-565.116c-47.741 0-86.407 39.516-86.407 88.288v487.762c0 48.703 38.666 88.294 86.407 88.294h524.914c-1.553-5.939-2.461-12.137-2.461-18.551v-55.362zM379.396 311.113l.797.054.773-.054h-1.57zM915.074 629.654h-110.657v-110.643c0-10.225-26.694-18.5-36.912-18.5h-18.43c-10.211 0-18.429 8.275-18.429 18.5v110.644h-110.724c-10.197 0-18.436 8.272-18.436 18.491v36.872c0 10.218 8.238 18.429 18.436 18.429h110.725v110.718c0 10.218 8.218 18.437 18.429 18.437h36.866c10.212 0 18.476-8.219 18.476-18.437v-110.719h110.657c10.219 0 18.511-8.211 18.511-18.429v-36.872c-.001-10.218-8.293-18.491-18.512-18.491z"/></g></svg>