<svg xmlns="http://www.w3.org/2000/svg" width="1000" height="1000" viewBox="0 0 1000 1000"><path fill-rule="evenodd" clip-rule="evenodd" fill="#0C0707" d="M810.172 889.421h-641.475c-55.886 0-101.236-46.329-101.236-103.506v-571.818c0-57.176 45.35-103.518 101.236-103.518h662.514c55.978 0 101.323 46.342 101.323 103.518v571.818c0 57.177-66.46 103.506-122.362 103.506zm-16.369-689.846h-588.259c-27.988 0-50.661 23.235-50.661 51.778v478.304l129.804-124.339c18.345-18.775 43.919-33.797 68.084-33.797 24.091 0 45.486 13.6 63.827 32.383l37.694 35.987c6.167 6.316 14.244 9.425 22.251 9.425 8.077 0 16.084-3.108 22.239-9.425l133.776-155.862c18.551-18.989 29.324-28.546 54.117-28.546 23.743 0 35.93 12.88 54.273 30.39l103.506 107.334v-341.854c.001-28.542-22.659-51.778-50.651-51.778zm-359.418 258.587c-48.603 0-88.141-40.443-88.141-90.121 0-49.372 40.745-89.472 89.067-90.043 48.317.571 87.285 40.671 87.285 90.043 0 49.678-39.612 90.121-88.211 90.121zm1.848-180.225l-.922.062-.926-.062h1.848z"/></svg>