<svg xmlns="http://www.w3.org/2000/svg" width="1000" height="1000" viewBox="0 0 1000 1000"><path fill="#060606" d="M211.471 355.434c-29.15 0-52.779-23.601-52.779-52.779 0-29.18 23.629-52.827 52.779-52.827 29.17 0 52.78 23.647 52.78 52.827 0 29.178-23.61 52.779-52.78 52.779zm212.529-98.3c-29.132 0-52.799-23.648-52.799-52.827 0-29.18 23.667-52.789 52.799-52.789 29.17 0 52.817 23.609 52.817 52.789 0 29.178-23.647 52.827-52.817 52.827zm0 201.879c-29.132 0-52.799-23.601-52.799-52.78s23.667-52.827 52.799-52.827c29.17 0 52.817 23.647 52.817 52.827s-23.647 52.78-52.817 52.78zm188.073-103.626c-29.132 0-52.779-23.601-52.779-52.779 0-29.18 23.647-52.827 52.779-52.827 29.17 0 52.78 23.647 52.78 52.827.001 29.178-23.61 52.779-52.78 52.779zm183.51 222.503c-1.597 0-3.193-.206-4.809-.263-.845.057-1.653.263-2.498.263h-659.957c-19.215 0-34.843-11.57-34.843-30.278 0-18.67 15.628-29.01 34.843-29.01l518.503-.423h148.761c23.366 0 48.272-22.512 48.272-45.821 0-23.347-24.906-42.271-48.272-42.271-6.123 0-11.908 1.353-17.093 3.719-1.39.846-2.836 1.644-4.357 2.329-.413.244-.883.413-1.296.714l-.132-.301c-3.644 1.353-7.476 2.16-11.532 2.16-18.614 0-33.697-15.082-33.697-33.696 0-15.628 10.688-28.672 25.132-32.476 13.204-5.832 27.611-9.335 42.976-9.335 60.312 0 109.166 48.854 109.166 109.156-.001 60.247-48.855 105.533-109.167 105.533zm-47.54 270.531c-15.364 0-29.809-3.531-42.994-9.316-14.481-3.851-25.169-16.905-25.169-32.532 0-18.558 15.083-33.697 33.696-33.697 4.058 0 7.908.864 11.533 2.217.037-.132.094-.226.132-.301.469.244.883.451 1.352.714 1.521.639 2.912 1.484 4.302 2.329 5.24 2.367 11.025 7.288 17.148 7.288 23.348 0 51.897-21.3 51.897-44.628 0-23.348-28.55-48.272-51.897-48.272h-148.817l-326.034.77c-19.252 0-34.823-10.349-34.823-29.02 0-18.651 15.571-30.222 34.823-30.222h467.508c.883 0 1.69.207 2.479.244 1.652-.075 3.212-.244 4.864-.244 60.256 0 111.515 45.268 111.515 105.522 0 60.255-51.259 109.148-111.515 109.148z"/></svg>