<svg xmlns="http://www.w3.org/2000/svg" width="1000" height="1000" viewBox="0 0 1000 1000"><path fill="#060606" d="M756.793 770.359h-73.566c.043-1.351.171-2.701.171-4.095 0-19.913-3.986-41.606-11.275-58.841 38.37.086 68.166.193 84.671.193 69.537 0 103.963-54.982 103.963-124.477 0-69.537-56.375-124.53-125.87-124.53-9.646 0-18.949 1.157-27.909 3.183 2.937-13.59 4.631-27.662 4.631-42.121 0-108.817-88.187-196.95-196.962-196.95-102.977 0-187.358 79.033-196.083 179.694-7.706-1.157-15.519-1.972-23.568-1.972-85.152 0-154.208 67.661-154.208 152.814 0 85.143 47.084 153.479 132.236 153.479 16.967 0 45.111.107 83.899.235-7.566 17.557-11.757 38.949-11.757 59.291 0 1.394.149 2.744.192 4.095h-72.335c-119.128 0-193.777-97.918-193.777-217.101 0-108.914 80.77-197.347 185.632-211.987 35.518-103.95 133.822-178.739 249.768-178.739 138.121 0 251.365 106.117 262.983 241.236 82.013 19.324 143.126 91.423 143.126 179.374 0 102.634-61.307 187.219-163.962 187.219zm-241.515 68.337c-12.872 0-23.322-10.461-23.322-23.322v-157.401c0-12.926 10.45-23.322 23.322-23.322 12.925 0 23.364 10.396 23.364 23.322v157.401c.001 12.861-10.439 23.322-23.364 23.322zm88.379-50.995c-6.452 11.125-20.707 14.94-31.854 8.531l-136.331-78.69c-11.179-6.452-14.983-20.729-8.531-31.896 6.409-11.146 20.675-15.005 31.854-8.531l136.331 78.69c11.146 6.452 15.005 20.728 8.531 31.896zm-8.531-70.159l-136.331 78.69c-11.179 6.409-25.444 2.594-31.854-8.531-6.452-11.168-2.647-25.444 8.531-31.896l136.288-78.69c11.189-6.474 25.444-2.658 31.896 8.531 6.475 11.167 2.616 25.444-8.53 31.896z"/></svg>