<svg xmlns="http://www.w3.org/2000/svg" width="1000" height="1000" viewBox="0 0 1000 1000"><path fill-rule="evenodd" clip-rule="evenodd" fill="#070404" d="M860.231 194.671c-49.719-54.909-120.471-86.564-193.828-86.564-60.141 0-116.928 20.114-164.414 56.03-47.852-37.603-105.001-58.453-165.536-58.453-73.902 0-144.865 32.402-194.948 88.987-50.83 57.343-77.82 134.626-77.82 223.241 0 252.877 231.99 376.146 331.059 428.834 9.129 4.835 19.923 10.439 26.991 14.539 20.296 21.761 48.961 34.806 80.062 34.806h1.676c31.665-.556 60.33-14.723 80.062-37.26 7.633-4.452 19.396-10.984 29.412-16.558 105.771-59.021 325.871-181.904 325.871-425.632 0-88.624-27.203-165.353-78.587-221.97zm-358.616 592.097c-9.683-32.958-328.642-119.148-328.642-368.855 0-230.117 243.167-276.301 328.077-78.001 81.182-190.464 328.455-153.984 328.455 76.73.001 242.233-319.145 335.895-327.89 370.126z"/></svg>