<svg xmlns="http://www.w3.org/2000/svg" width="1000" height="1000" viewBox="0 0 1000 1000"><path fill-rule="evenodd" clip-rule="evenodd" fill="#080304" d="M621.874 515.928l303.28-321.047c.156 1.998 1.1 3.795 1.1 5.792v598.023l-304.38-282.768zm-161.896 5.09l-352.781-364.271c3.427-.885 6.699-2.159 10.344-2.159h764.993l-342.487 366.43c-38.69 45.541-80.069 0-80.069 0zm-384.914 279.281l-.155-.906v-588.188l303.966 304.355-303.811 284.739zm363.915-224.481c54.788 50.275 122.119 4.525 122.119 4.525l21.205-22.487 301.629 287.624h-766.39c-1.254 0-2.34-.519-3.438-.7l303.979-289.832 20.896 20.87z"/></svg>