<svg xmlns="http://www.w3.org/2000/svg" width="1000" height="1000" viewBox="0 0 1000 1000"><path fill-rule="evenodd" clip-rule="evenodd" fill="#070505" d="M709.961 868.288c.55 1.647.957 2.729.957 2.729h-5.584c-60.918 33.98-131.091 53.434-205.899 53.434s-144.982-19.453-205.899-53.434h-6.259s.408-1.082 1.082-3.152c-127.169-73.17-212.826-210.111-212.826-367.326 0-234.059 189.717-423.909 423.901-423.909 234.06 0 423.901 189.85 423.901 423.909.001 157.371-85.939 294.721-213.374 367.749zm-212.024-696.863c-181.826 0-329.122 147.438-329.122 329.114 0 118.324 62.972 221.286 156.677 279.206 23.658-48.664 57.246-104.984 97.792-140.095-49.253-26.89-83.107-78.456-83.107-138.538 0-87.61 70.98-158.615 158.591-158.615 87.571 0 158.553 71.005 158.553 158.615 0 59.83-33.564 111.335-82.535 138.287 40.389 34.797 73.695 90.85 97.384 139.42 92.614-58.391 154.747-160.787 154.747-278.28-.001-181.677-147.28-329.114-328.98-329.114z"/></svg>