<svg xmlns="http://www.w3.org/2000/svg" width="1000" height="1000" viewBox="0 0 1000 1000"><path fill-rule="evenodd" clip-rule="evenodd" fill="#020202" d="M881.492 288.976c-7.734-7.574-16.486-14.104-26.293-19.064 0 0-239.339-123.098-259.572-133.596-27.313-21.111-60.792-32.602-95.998-32.602-34.684 0-68.003 11.313-95.289 32.273-19.064 9.772-260.268 133.924-260.268 133.924-9.47 4.811-18.042 11.162-25.594 18.524-30.045 29.536-46.705 69.207-46.705 111.793 0 41.354 16.814 82.071 46.014 111.244 7.729 7.557 16.482 14.077 26.285 19.074 0 0 16.465 8.469 41.022 21.093v136.165c0 32.965 15.278 62.315 39.131 81.566 54.258 77.233 159.518 126.862 276.786 126.862 117.597 0 223.002-49.779 277.113-127.376 23.335-19.242 38.466-48.425 38.466-81.053v-31.937l-.362 7.37.69-14.768s-.186-3.588-.328-7.371v-90.7c23.247-11.95 38.609-19.853 38.609-19.853 9.957-5.174 19.064-11.854 26.799-19.765 29.35-29.688 45.473-69.021 45.473-110.554 0-42.077-16.478-81.562-45.979-111.249zm-169.811 367.37v31.459h-7.813c-25.213 59.817-106.434 103.52-202.856 103.52-96.432 0-177.652-43.702-202.865-103.52h-8.147v-82.213c54.329 27.942 105.056 54.015 113.827 58.515 27.286 20.784 61.305 32.629 95.803 32.629 35.206 0 68.508-11.518 95.635-32.451 8.699-4.501 60.994-31.415 116.417-59.924v36.252c.213 2.604.337 5.227.337 7.858-.001 2.648-.125 5.27-.338 7.875zm95.608-219.033l-270.576 139.248c-20.43 20.421-53.748 20.421-74.168 0l-270.589-139.248c-20.424-20.43-20.424-53.749 0-74.169l270.589-139.248c20.42-20.429 53.739-20.429 74.168 0l270.576 139.248c20.455 20.42 20.455 53.74 0 74.169z"/></svg>