<svg xmlns="http://www.w3.org/2000/svg" width="1000" height="1000" viewBox="0 0 1000 1000"><path fill="#020202" d="M728.271 700.183h-87.854c-5.238-17.671-14.386-40.581-25.321-61.328 50.746.25 93.052.374 113.176.374 67.544 0 122.322-54.758 122.322-122.364 0-67.522-54.778-122.302-122.322-122.302-9.355 0-18.419 1.123-27.15 3.088 2.91-13.181 4.49-26.87 4.49-40.944 0-105.712-85.671-191.384-191.342-191.384-100.109 0-182.091 76.795-190.594 174.659-7.474-1.175-15.093-1.913-22.899-1.913-82.72 0-149.837 67.065-149.837 149.837 0 82.72 67.117 149.785 149.837 149.785 22.203 0 70.018.188 126.241.416-11.174 21.038-20.477 44.218-25.757 62.076h-100.484c-115.764 0-209.657-96.503-209.657-212.277 0-105.857 78.51-193.119 180.396-207.37 34.541-101.004 130.025-173.724 242.754-173.724 134.214 0 244.25 103.145 255.56 234.428 79.684 18.835 139.037 90.203 139.037 175.625-.002 99.787-80.85 183.318-180.596 183.318zm-207.464 63.572c-28.928 0-52.43-23.471-52.43-52.513 0-28.918 52.43-97.376 52.43-97.376s52.44 68.458 52.44 97.376c0 29.042-23.471 52.513-52.44 52.513zm-201.945 130.555c-28.97 0-52.44-23.449-52.44-52.471 0-28.897 52.44-97.396 52.44-97.396s52.44 68.499 52.44 97.396c.001 29.021-23.512 52.471-52.44 52.471zm426.996 0c-28.98 0-52.451-23.449-52.451-52.471 0-28.897 52.451-97.396 52.451-97.396s52.43 68.499 52.43 97.396c0 29.021-23.45 52.471-52.43 52.471z"/></svg>