<svg xmlns="http://www.w3.org/2000/svg" width="1000" height="1000" viewBox="0 0 1000 1000"><path fill="#060606" d="M297.055 906.791c-11.268 0-20.434-9.155-20.434-20.423v-137.839c0-11.289 9.166-20.444 20.434-20.444 11.278 0 20.444 9.155 20.444 20.444v137.839c0 11.268-9.166 20.423-20.444 20.423zm77.391-44.666c-5.666 9.796-18.14 13.104-27.924 7.491l-119.369-68.952c-9.784-5.612-13.092-18.118-7.479-27.913 5.655-9.731 18.129-13.104 27.913-7.427l119.369 68.888c9.784 5.655 13.146 18.14 7.49 27.913zm-7.49-61.461l-119.369 68.952c-9.784 5.612-22.258 2.305-27.913-7.491-5.612-9.773-2.262-22.258 7.479-27.913l119.369-68.888c9.784-5.677 22.258-2.305 27.924 7.47 5.656 9.752 2.294 22.258-7.49 27.87zm365.958-115.815h-73.39c.043-1.344.192-2.688.192-4.012 0-19.782-3.991-44.281-11.183-61.418 38.05.149 68.033.234 84.38.234 68.952 0 124.843-44.474 124.843-113.414 0-68.994-55.891-118.216-124.843-118.216-9.539 0-18.736 1.205-27.679 3.222 2.924-13.487 4.61-27.443 4.61-41.838 0-107.897-87.454-195.362-195.362-195.362-102.094 0-185.813 78.395-194.445 178.279-7.672-1.152-15.396-1.963-23.41-1.963-84.444 0-152.905 62.752-152.905 147.186 0 84.487 68.461 141.53 152.905 141.53 16.838 0 44.324.107 82.802.192-7.48 17.414-11.652 41.358-11.652 61.567 0 1.323.139 2.668.192 4.012h-71.342c-118.12 0-213.982-89.075-213.982-207.302 0-107.994 80.124-191.329 184.138-205.915 35.266-103.054 132.706-177.276 247.7-177.276 137.038 0 249.29 105.263 260.856 239.271 81.371 19.186 141.957 85.395 141.957 172.613.001 101.805-82.566 178.61-184.382 178.61zm-220.629 61.333c-10.852 0-19.623-8.792-19.623-19.591v-132.033c0-10.777 8.771-19.569 19.623-19.569 10.787 0 19.516 8.792 19.516 19.569v132.033c0 10.799-8.729 19.591-19.516 19.591zm74.063-42.809c-5.421 9.368-17.371 12.569-26.719 7.148l-114.321-66.006c-9.357-5.378-12.569-17.371-7.149-26.719 5.367-9.368 17.318-12.591 26.719-7.149l114.343 66.007c9.345 5.378 12.547 17.371 7.127 26.719zm-7.128-58.857l-114.343 66.006c-9.357 5.421-21.352 2.22-26.719-7.148-5.42-9.348-2.208-21.341 7.149-26.719l114.321-66.007c9.348-5.441 21.298-2.219 26.719 7.149 5.421 9.348 2.219 21.341-7.127 26.719zm154.889 262.275c-11.311 0-20.423-9.155-20.423-20.423v-137.839c0-11.289 9.112-20.444 20.423-20.444 11.289 0 20.444 9.155 20.444 20.444v137.839c.001 11.268-9.155 20.423-20.444 20.423zm77.403-44.666c-5.655 9.796-18.14 13.104-27.935 7.491l-119.358-68.952c-9.795-5.612-13.146-18.118-7.49-27.913 5.677-9.731 18.14-13.104 27.935-7.427l119.358 68.888c9.731 5.655 13.102 18.14 7.49 27.913zm-7.491-61.461l-119.358 68.952c-9.795 5.612-22.258 2.305-27.935-7.491-5.655-9.773-2.305-22.258 7.49-27.913l119.358-68.888c9.795-5.677 22.279-2.305 27.935 7.47 5.613 9.752 2.242 22.258-7.49 27.87z"/></svg>