<svg xmlns="http://www.w3.org/2000/svg" width="1000" height="1000" viewBox="0 0 1000 1000"><path fill="#060606" d="M846.76 548.296c-22.439-36.706-62.785-55.923-108.934-55.923-9.774 0-19.216 1.217-28.324 3.275 3.036-13.788 4.721-28.096 4.721-42.778 0-110.39-89.488-199.878-199.836-199.878-104.504 0-190.104 80.234-198.983 182.388-7.819-1.165-15.764-2.007-23.896-2.007-73.953 0-135.761 46.002-152.086 114.923h-63.68c15.618-93.7 90.694-161.768 185.194-175.005 36.041-105.429 135.782-182.71 253.45-182.71 140.17 0 255.051 109.027 266.822 246.161 61.392 14.443 111.096 53.489 133.016 111.554h-67.464zm51.16 91.817h-795.953c-16.222 0-29.365-9.483-29.365-23.792 0-14.308 13.144-23.146 29.365-23.146h795.953c16.18 0 29.303 8.839 29.303 23.146 0 14.309-13.123 23.792-29.303 23.792zm-24.312 85.329h-726.762c-16.222 0-29.344-8.776-29.344-23.085 0-14.308 13.122-23.854 29.344-23.854h726.763c16.159 0 29.303 9.546 29.303 23.854-.001 14.309-13.144 23.085-29.304 23.085zm-88.51 85.059h-547.911c-16.221 0-29.364-8.839-29.364-23.146 0-14.309 13.144-22.398 29.364-22.398h547.911c16.222 0 29.365 8.09 29.365 22.398 0 14.307-13.144 23.146-29.365 23.146z"/></svg>