<svg xmlns="http://www.w3.org/2000/svg" width="1000" height="1000" viewBox="0 0 1000 1000"><path fill="#050000" d="M743.867 731.864c-145.303 207.145-246.553 198.603-246.553 198.603-124.678-.921-237.455-184.493-237.455-184.493-109.058-81.372-55.912-177.983-55.912-177.983 0-103.489 166.106-73.949 166.106-73.949l308.96-1.115c72.652 0 102.378 60.38 102.378 60.38 63.735 59.105-37.524 178.557-37.524 178.557zm-250.438-283.544c-107.589 0-194.746-87.123-194.746-194.714 0-107.376 87.157-194.502 194.746-194.502 107.562 0 194.69 87.125 194.69 194.502 0 107.592-87.128 194.714-194.69 194.714z"/></svg>