<?xml version="1.0" encoding="utf-8"?>
<!-- Generator: Adobe Illustrator 14.0.0, SVG Export Plug-In . SVG Version: 6.00 Build 43363)  -->
<!DOCTYPE svg PUBLIC "-//W3C//DTD SVG 1.1//EN" "http://www.w3.org/Graphics/SVG/1.1/DTD/svg11.dtd">
<svg version="1.1" id="图层_1" xmlns="http://www.w3.org/2000/svg" xmlns:xlink="http://www.w3.org/1999/xlink" x="0px" y="0px"
	 width="1000px" height="1000px" viewBox="0 0 1000 1000" enable-background="new 0 0 1000 1000" xml:space="preserve">
<path fill-rule="evenodd" clip-rule="evenodd" fill="#603813" d="M878.747,807.294c0,0-59.635-211.457-275.285-264.828v-13.191
	c74.099-41.992,124.923-128.102,124.923-227.503c0-8.604-0.387-17.107-1.13-25.492c1.434-9.653,2.185-19.529,2.185-29.582
	c0-110.286-89.428-199.715-199.742-199.715h-57.045c-110.314,0-199.743,89.429-199.743,199.715c0,9.558,0.687,18.953,1.984,28.152
	c-0.829,8.848-1.263,17.828-1.263,26.921c0,95.264,46.685,178.316,115.813,222.029v20.595
	c-210.396,56.769-268.231,266.231-268.231,266.231c0,48.103-13.609,144.363,54.657,144.363h648.498
	C892.578,954.99,878.747,855.341,878.747,807.294z"/>
</svg>
