<svg xmlns="http://www.w3.org/2000/svg" width="1000" height="1000" viewBox="0 0 1000 1000"><path fill="#060606" d="M764.319 694.898v-60.461c61.647-8.262 96.807-60.871 96.807-124.783 0-69.585-56.405-125.98-126.013-125.98-9.577 0-18.938 1.165-27.911 3.192 2.955-13.578 4.615-27.686 4.615-42.181 0-108.918-88.265-197.172-197.14-197.172-103.041 0-187.521 79.141-196.245 179.905-7.766-1.165-15.574-1.941-23.619-1.941-85.256 0-154.356 69.057-154.356 154.302 0 75.259 44.229 137.834 115.465 151.487v62.273c-105.37-14.322-177.047-104.398-177.047-213.76 0-109.015 80.834-198.865 185.772-213.608 35.602-103.969 133.993-178.893 250.03-178.893 138.297 0 251.626 106.201 263.274 241.5 82.096 19.348 143.247 92.913 143.247 180.876.001 97.087-61.969 176.702-156.879 185.244zm-398.12 10.419c-23.964 0-43.409-19.457-43.409-43.399v-71.268c0-23.965 19.445-43.421 43.409-43.421 23.997 0 43.399 19.456 43.399 43.421v71.268c.001 23.942-19.402 43.399-43.399 43.399zm.335 178.255c-24.148 0-43.744-19.585-43.744-43.787v-71.807c0-24.202 19.596-43.788 43.744-43.788 24.201 0 43.744 19.586 43.744 43.788v71.807c0 24.202-19.543 43.787-43.744 43.787zm146.688-111.323c-19.974 0-36.173-16.199-36.173-36.173v-59.361c0-19.974 16.199-36.173 36.173-36.173 19.931 0 36.13 16.199 36.13 36.173v59.361c0 19.974-16.2 36.173-36.13 36.173zm-1.985 142.169c-18.917 0-34.188-15.271-34.188-34.167v-56.082c0-18.853 15.271-34.168 34.188-34.168 18.874 0 34.146 15.315 34.146 34.168v56.082c0 18.895-15.272 34.167-34.146 34.167zm142.082-210.935c-23.813 0-43.054-19.305-43.054-43.075v-70.707c0-23.792 19.24-43.098 43.054-43.098 23.771 0 43.055 19.306 43.055 43.098v70.707c0 23.771-19.284 43.075-43.055 43.075zm.475 179.421c-24.029 0-43.528-19.543-43.528-43.594v-71.526c0-24.115 19.499-43.594 43.528-43.594 24.072 0 43.615 19.479 43.615 43.594v71.526c0 24.051-19.543 43.594-43.615 43.594z"/></svg>