<svg xmlns="http://www.w3.org/2000/svg" width="1000" height="1000" viewBox="0 0 1000 1000"><path fill-rule="evenodd" clip-rule="evenodd" fill="#070505" d="M152.02 233.375l53.356-53.356h219.018c-2.969-8.598-5.429-17.315-5.429-26.796 0-44.075 35.855-80.108 80.103-80.108 44.266 0 80.135 36.033 80.135 80.108 0 9.481-2.459 18.198-5.429 26.796h219l53.339 53.356v53.493h-694.093v-53.493zm640.754 534.037c-16.614 68.358-53.356 160.206-135.567 160.206h-316.245c-82.066 0-118.791-101.794-135.586-160.206-16.614-58.457-53.356-427.188-53.356-427.188h694.094c-.001 0-36.562 358.767-53.34 427.188zm-533.878-320.511l53.356 320.511s0 53.303 53.338 53.303h266.933c45.305 0 53.538-53.303 53.538-53.303l53.356-320.511h-480.521z"/></svg>