<svg xmlns="http://www.w3.org/2000/svg" width="1000" height="1000" viewBox="0 0 1000 1000"><path fill="#060606" d="M399.105 428.212c-25.844 0-46.814-20.955-46.814-46.832 0-25.86 20.971-46.814 46.814-46.814s46.798 20.954 46.798 46.814c0 25.877-20.954 46.832-46.798 46.832zm283.823-138.438c-25.844 0-46.797-20.921-46.797-46.815 0-25.844 20.953-46.798 46.797-46.798s46.816 20.954 46.816 46.798c0 25.894-20.973 46.815-46.816 46.815zm172.931 425.078c-25.844 0-46.799-20.955-46.799-46.85 0-25.844 20.955-46.797 46.799-46.797 25.859 0 46.814 20.953 46.814 46.797.001 25.894-20.954 46.85-46.814 46.85zm-102.884 85.47c-25.844 0-46.816-20.922-46.816-46.816 0-25.842 20.973-46.797 46.816-46.797 25.842 0 46.797 20.955 46.797 46.797-.001 25.894-20.956 46.816-46.797 46.816zm-198.827-261.25c-1.432 0-2.883-.152-4.314-.221-.725.068-1.451.221-2.209.221h-420.947c-17.061 0-30.918-15.914-30.918-32.469 0-16.573 13.857-33.701 30.918-33.701l295.506.675h131.964c20.686 0 37.477-13.065 37.477-33.716 0-20.702-16.791-37.493-37.477-37.493-5.461 0-10.568 1.214-15.188 3.305-1.266.725-2.514 1.467-3.844 2.04l-1.164.641-.152-.253c-3.186 1.214-6.592 1.922-10.199 1.922-16.52 0-29.906-13.369-29.906-29.856 0-13.874 9.525-25.438 22.32-28.811 11.684-5.158 24.496-8.294 38.133-8.294 53.441 0 96.75 43.359 96.75 96.8 0 53.389-43.308 99.21-96.75 99.21zm204.997 55.227c-1.434 0-2.832-.152-4.283-.236-.758.084-1.432.236-2.191.236h-89.027c-17.061 0-30.934-12.205-30.934-28.76 0-16.572 13.873-27.529 30.934-27.529l2.494.691h93.008c20.701 0 37.492-16.758 37.492-37.443 0-20.701-16.791-37.492-37.492-37.492-5.412 0-10.57 1.214-15.189 3.305-1.215.758-2.461 1.517-3.826 2.039-.389.236-.811.422-1.182.691l-.117-.27c-3.221 1.18-6.625 1.938-10.232 1.938-16.488 0-29.855-13.385-29.855-29.906 0-13.841 9.473-25.438 22.285-28.811 11.699-5.158 24.479-8.261 38.117-8.261 53.439 0 96.766 43.326 96.766 96.765-.003 53.426-43.329 93.043-96.768 93.043zm-204.997 210.828c-13.637 0-26.449-3.104-38.133-8.262-12.795-3.371-22.32-14.969-22.32-28.793 0-16.537 13.386-29.906 29.906-29.906 3.607 0 7.014.758 10.199 1.922.068-.068.102-.152.152-.254.371.254.758.455 1.164.641 1.33.574 2.578 1.332 3.844 2.092 4.619 2.072 9.727 3.287 15.188 3.287 20.686 0 37.477-16.791 37.477-37.477 0-20.701-16.791-31.271-37.477-31.271l-131.964 1.248-175.848-.574c-17.061 0-30.9-15.914-30.9-32.434 0-16.555 13.84-33.734 30.9-33.734h301.289c.758 0 1.484.152 2.209.186 1.432-.033 2.883-.186 4.314-.186 53.441 0 96.75 43.326 96.75 96.766 0 53.44-43.308 96.749-96.75 96.749z"/></svg>