<svg xmlns="http://www.w3.org/2000/svg" width="1000" height="1000" viewBox="0 0 1000 1000"><g fill-rule="evenodd" clip-rule="evenodd" fill="#020101"><path d="M331.997 216.867h267.67v133.834h100.375v-234.211h-468.422v338.379c-10.717-2.467-21.777-4.199-33.361-4.199-73.909 0-133.835 53.342-133.835 119.049 0 65.807 59.926 119.133 133.835 119.133 73.813 0 133.738-53.326 133.738-119.133 0-6.273-1.029-12.285-2.076-18.264h2.076v-334.588zM856.39 382.135h-409.82c-43.801 0-79.383 35.484-79.383 79.398v343.803c0 43.816 35.582 79.301 79.383 79.301h409.82c43.785 0 79.27-35.484 79.27-79.301v-343.803c-.001-43.914-35.485-79.398-79.27-79.398zm-20.291 322.105c0 43.816-35.484 79.301-79.268 79.301h-154.42l203.791-135.043-208.267-133.346v268.389h-53.031c-43.898 0-79.383-35.484-79.383-79.301v-140.207c0-43.816 35.484-79.301 79.383-79.301h211.928c43.783 0 79.268 35.484 79.268 79.301v140.207z"/></g></svg>