<svg xmlns="http://www.w3.org/2000/svg" width="1000" height="1000" viewBox="0 0 1000 1000"><path fill-rule="evenodd" clip-rule="evenodd" fill="#020101" d="M901.525 907.789c-32.744 32.847-85.371 32.847-118.115 0l-183.763-184.098c-133.097 80.546-308.335 64.328-423.252-50.174-134.746-135.136-134.746-353.657 0-488.818 135.161-134.773 353.682-134.773 488.843 0 114.09 114.503 130.256 287.703 51.39 420.437l184.897 184.95c32.385 32.355 32.385 85.373 0 117.703zm-324.138-635.264c-86.563-86.637-226.578-86.637-313.191 0-86.613 86.563-86.613 226.629 0 313.192 86.613 86.612 226.629 86.612 313.191 0 86.614-86.563 86.614-226.629 0-313.192z"/></svg>