<svg xmlns="http://www.w3.org/2000/svg" width="1000" height="1000" viewBox="0 0 1000 1000"><path fill="#060606" d="M886.585 477.844c-9.893-16.82-22.114-32.119-36.319-45.588 9.197-18.885 14.491-40.019 14.491-62.398 0-79.158-64.197-143.355-143.417-143.355-9.912 0-19.662 1.012-29.043 2.943-15.656-15.073-32.886-28.491-51.587-39.702 24.629-11.026 51.914-17.321 80.63-17.321 109.08 0 197.497 88.406 197.497 197.436 0 39.884-11.957 76.918-32.252 107.985zm-179.572 285.535h-87.313c-5.13-17.331-14.103-40.55-24.853-60.906 49.809.204 91.298.327 111.063.327 66.261 0 120.015-52.567 120.015-118.87s-53.755-120.015-120.016-120.015c-9.197 0-18.068 1.104-26.611 3.086 2.8-12.958 4.415-26.427 4.415-40.212 0-103.705-84.084-187.789-187.748-187.789-98.187 0-178.652 75.356-186.971 171.387-7.338-1.145-14.777-1.932-22.462-1.932-81.182 0-146.993 68.05-146.993 149.231 0 81.202 65.812 144.786 146.993 144.786 21.787 0 68.693.144 123.837.368-10.935 20.643-20.091 43.022-25.282 60.538h-98.555c-113.576 0-205.672-92.055-205.672-205.692 0-103.786 76.971-191.641 176.956-205.651 33.907-99.065 127.597-172.634 238.148-172.634 131.686 0 239.621 103.388 250.698 232.232 78.198 18.416 136.428 88.489 136.428 172.297 0 97.88-78.218 179.449-176.077 179.449zm-204.61 64.954c-28.409 0-51.423-23.014-51.423-51.464 0-28.39 51.423-95.57 51.423-95.57s51.464 67.181 51.464 95.57c0 28.45-23.075 51.464-51.464 51.464z"/></svg>