<svg xmlns="http://www.w3.org/2000/svg" width="1000" height="1000" viewBox="0 0 1000 1000"><path fill="#060606" d="M237.139 458.491c-28.031 0-50.809-22.718-50.809-50.799 0-28.12 22.777-50.858 50.809-50.858 28.121 0 50.849 22.738 50.849 50.858-.001 28.081-22.728 50.799-50.849 50.799zm485.202 0c-28.081 0-50.799-22.718-50.799-50.799 0-28.12 22.718-50.858 50.799-50.858s50.799 22.738 50.799 50.858c0 28.081-22.718 50.799-50.799 50.799zm-221.56-181.012c-28.071 0-50.81-22.737-50.81-50.818 0-28.12 22.738-50.839 50.81-50.839 28.07 0 50.838 22.719 50.838 50.839 0 28.081-22.767 50.818-50.838 50.818zm0 242.418c-28.071 0-50.81-22.738-50.81-50.858 0-28.061 22.738-50.838 50.81-50.838 28.07 0 50.838 22.777 50.838 50.838 0 28.12-22.767 50.858-50.838 50.858zm379.359 164.865h-761.429c-18.513 0-33.543-14.585-33.543-32.554 0-17.988 15.03-32.573 33.543-32.573h761.429c18.543 0 33.543 14.585 33.543 32.573 0 17.969-15 32.554-33.543 32.554zm-97.818 139.394h-561.954c-18.553 0-33.593-13.298-33.593-31.326 0-17.969 15.04-30.021 33.593-30.021h561.954c18.542 0 33.522 12.052 33.522 30.021.001 18.028-14.98 31.326-33.522 31.326z"/></svg>