<svg xmlns="http://www.w3.org/2000/svg" width="1000" height="1000" viewBox="0 0 1000 1000"><path fill="#060606" d="M729.479 702.436h-88.339c-5.275-17.751-14.444-41.93-25.455-62.779 51.015.188 93.551.314 113.794.314 67.95 0 121.707-52.564 121.707-120.514 0-67.961-53.757-123.016-121.707-123.016-9.378 0-18.505 1.131-27.256 3.15 2.868-13.313 4.522-27.057 4.522-41.229 0-106.258-86.162-195.109-192.483-195.109-100.627 0-183.063 79.902-191.582 178.311-7.536-1.172-15.156-1.926-23.069-1.926-83.189 0-149.317 67.437-149.317 150.637 0 83.211 66.128 149.339 149.317 149.339 22.357 0 70.42.188 126.94.356-11.199 21.143-20.535 44.483-25.895 62.465h-101.046c-116.369 0-209.46-95.729-209.46-212.16 0-106.404 77.601-194.168 180.049-208.528 34.73-101.506 130.793-177.327 244.064-177.327 135.021 0 245.654 106.363 257 238.422 80.154 18.913 138.495 90.726 138.495 176.615 0 100.334-79.945 182.979-180.279 182.979zm-158.926 44.797l-.042.188h-99.454l-.042-.23c-7.851-.983-13.921-7.62-13.921-15.763 0-3.119.942-5.987 2.491-8.437l-.146-.188 47.288-85.785h.104c2.68-4.981 7.913-8.436 13.984-8.436 6.196 0 11.471 3.537 14.108 8.666h.146l46.766 84.99c.104.188.251.335.335.522l.23.335v.042c1.465 2.449 2.365 5.233 2.365 8.29.002 8.228-6.215 14.906-14.212 15.806zm-215.112 148.711l-.063.23h-117.457l-.042-.23c-9.273-1.172-16.433-9.022-16.433-18.631 0-3.663 1.089-7.055 2.868-9.922l-.126-.252 55.893-101.317h.104c3.202-5.924 9.357-9.985 16.517-9.985 7.284 0 13.544 4.145 16.663 10.216h.188l55.243 100.438c.146.188.293.377.376.565l.294.418v.104c1.737 2.806 2.805 6.155 2.805 9.734 0 9.736-7.368 17.649-16.83 18.632zm451.597.482l-.042.23h-117.855l-.084-.23c-9.273-1.235-16.475-9.085-16.475-18.693 0-3.663 1.089-7.097 2.91-9.965-.042-.104-.084-.188-.146-.251l56.06-101.694h.104c3.182-5.924 9.399-9.985 16.601-9.985 7.284 0 13.564 4.208 16.705 10.278h.188l55.39 100.753.439.564.272.419v.042c1.737 2.889 2.825 6.217 2.825 9.839.001 9.754-7.43 17.709-16.892 18.693z"/></svg>