<svg xmlns="http://www.w3.org/2000/svg" width="1000" height="1000" viewBox="0 0 1000 1000"><path fill="#060606" d="M722.66 754.615h-66.97c.06-1.297.199-2.555.199-3.853 0-18.623-3.772-38.405-10.559-54.573 35.91.14 61.899.239 77.329.239 65.014 0 97.291-51.659 97.291-116.693 0-65.014-52.737-117.69-117.711-117.69-9.022 0-17.726 1.117-26.109 2.994 2.774-12.695 4.291-25.89 4.291-39.403 0-101.723-82.419-184.162-184.121-184.162-96.303 0-175.189 73.916-183.363 168.053-7.227-1.117-14.492-1.876-22.027-1.876-79.615 0-144.189 64.574-144.189 144.18 0 79.604 64.574 144.18 144.189 144.18 15.879 0 22.846-.979 59.095-.839-7.046 16.408-10.988 36.609-10.988 55.592 0 1.298.13 2.556.18 3.853h-48.286c-111.384 0-201.718-91.362-201.718-202.785 0-101.822 75.483-185.779 173.532-199.512 33.256-97.151 125.157-169.231 233.576-169.231 129.169 0 235.003 101.323 245.921 227.657 76.691 18.085 133.82 86.791 133.82 168.991 0 95.992-57.389 174.878-153.382 174.878zm-225.73 71.042c-12.157 0-21.987-9.86-21.987-21.978v-148.37c0-12.156 9.83-21.978 21.987-21.978 12.166 0 21.986 9.821 21.986 21.978v148.371c0 12.117-9.82 21.977-21.986 21.977zm83.287-48.106c-6.088 10.56-19.521 14.133-30.062 8.044l-128.43-74.136c-10.55-6.107-14.143-19.521-8.084-30.081 6.058-10.5 19.521-14.072 30.071-8.024l128.42 74.176c10.56 6.068 14.134 19.521 8.085 30.021zm-8.084-66.092l-128.47 74.136c-10.5 6.089-23.964 2.516-30.021-8.044-6.059-10.5-2.466-23.953 8.084-30.021l128.43-74.176c10.54-6.048 23.974-2.476 30.062 8.024 6.048 10.56 2.474 23.974-8.085 30.081zm306.723-236.6c-9.682-16.508-21.678-31.538-35.571-44.692 8.983-18.524 14.173-39.264 14.173-61.241 0-77.649-62.958-140.606-140.646-140.606-9.741 0-19.282 1.038-28.484 2.914-15.351-14.812-32.277-27.945-50.562-38.944 24.173-10.818 50.86-17.007 79.046-17.007 106.992 0 193.703 86.691 193.703 193.644 0 39.123-11.717 75.471-31.659 105.932z"/></svg>