<svg xmlns="http://www.w3.org/2000/svg" width="1000" height="1000" viewBox="0 0 1000 1000"><path fill="#020202" d="M500.474 233.659c-15.228 0-27.579-12.352-27.579-27.579v-77.819c0-15.266 12.352-27.626 27.579-27.626 15.274 0 27.626 12.36 27.626 27.626v77.819c0 15.228-12.352 27.579-27.626 27.579zm370.231 292.987h-77.838c-15.219 0-27.579-12.351-27.579-27.625 0-15.229 12.36-27.626 27.579-27.626h77.838c15.218 0 27.616 12.397 27.616 27.626 0 15.274-12.398 27.625-27.616 27.625zm-663.636 0h-77.811c-15.228 0-27.579-12.351-27.579-27.625 0-15.229 12.352-27.626 27.579-27.626h77.811c15.237 0 27.579 12.397 27.579 27.626 0 15.274-12.341 27.625-27.579 27.625zm89.456-199.281c-10.765 10.811-28.238 10.811-39.012 0l-55.028-55.028c-10.765-10.765-10.765-28.248 0-39.059 10.764-10.765 28.247-10.765 39.049 0l54.991 55.038c10.811 10.801 10.811 28.285 0 39.049zm505.955-55.028l-55.01 55.028c-10.765 10.811-28.247 10.811-39.049 0-10.765-10.765-10.765-28.248 0-39.049l55.047-55.038c10.765-10.765 28.247-10.765 39.012 0 10.802 10.811 10.802 28.294 0 39.059zm-302.006 627.036c-15.228 0-27.579-12.397-27.579-27.635v-77.819c0-15.256 12.352-27.616 27.579-27.616 15.274 0 27.626 12.36 27.626 27.616v77.819c0 15.238-12.352 27.635-27.626 27.635zm-203.949-187.727l-54.991 55.028c-10.802 10.765-28.285 10.765-39.049 0-10.765-10.802-10.765-28.284 0-39.049l55.028-55.028c10.773-10.765 28.247-10.765 39.012 0 10.811 10.764 10.811 28.247 0 39.049zm505.955 55.028c-10.765 10.765-28.247 10.765-39.012 0l-55.047-55.028c-10.765-10.802-10.765-28.284 0-39.049 10.802-10.765 28.284-10.765 39.049 0l55.01 55.028c10.802 10.765 10.802 28.247 0 39.049zm-302.006-39.55c-125.962 0-228.057-102.132-228.057-228.104 0-125.963 102.095-228.066 228.057-228.066 125.972 0 228.104 102.104 228.104 228.066-.001 125.972-102.133 228.104-228.104 228.104zm0-395.036c-92.203 0-166.932 74.721-166.932 166.933s74.729 166.987 166.932 166.987c92.212 0 166.969-74.775 166.969-166.987s-74.757-166.933-166.969-166.933z"/></svg>