<svg xmlns="http://www.w3.org/2000/svg" width="1000" height="1000" viewBox="0 0 1000 1000"><path fill="#060606" d="M896.933 429.265c-10.177-17.299-22.735-32.975-37.273-46.755 9.419-19.427 14.834-41.076 14.834-64.096 0-81.288-65.887-147.122-147.176-147.122-10.198 0-20.186 1.043-29.794 3.023-16.055-15.487-33.775-29.225-52.97-40.729 25.305-11.378 53.244-17.815 82.764-17.815 111.967 0 202.695 90.707 202.695 202.643 0 40.93-12.221 78.961-33.08 110.851zm-185.482 294.393h-84.429l48.651-62.326c15.023.043 27.392.043 35.777.043 68.057 0 123.198-55.162 123.198-123.219 0-68.015-55.142-123.156-123.198-123.156-9.376 0-18.521 1.139-27.286 3.129 2.887-13.316 4.488-27.096 4.488-41.266 0-106.437-86.304-194.541-192.688-194.541-100.8 0-183.374 79.16-191.886 177.685-7.586-1.138-15.213-1.948-23.114-1.948-83.333 0-150.884 67.551-150.884 150.915 0 83.333 67.551 150.884 150.884 150.884 9.271 0 23.198.042 40.117.084l-19.574 61.904h-18.752c-116.582 0-212.915-96.291-212.915-212.872 0-106.573 79.056-194.437 181.646-208.848 34.829-101.696 130.973-176.685 244.478-176.685 135.187 0 245.932 105.636 257.352 237.894 80.236 18.899 140.033 90.802 140.033 176.821.002 100.463-81.435 185.502-181.898 185.502zm-103.033-64.054l-186.83 225.873 49.263-162.494-101.306-.547 75.832-213.463h149.493l-87.21 150.631h100.758z"/></svg>