<svg xmlns="http://www.w3.org/2000/svg" width="1000" height="1000" viewBox="0 0 1000 1000"><path fill-rule="evenodd" clip-rule="evenodd" fill="#040404" d="M499.465 907.98c-224.994 0-407.432-182.439-407.432-407.504 0-224.994 182.438-407.457 407.432-407.457 225.064 0 407.504 182.463 407.504 407.457 0 225.065-182.44 407.504-407.504 407.504zm4.051-711.078c-169.916 0-307.623 137.707-307.623 307.6 0 169.824 137.707 307.602 307.623 307.602 169.893 0 307.576-137.777 307.576-307.602 0-169.893-137.684-307.6-307.576-307.6zm-51.942 387.491v-323.586h107.838v227.709h143.77v95.877h-251.608z"/></svg>