<svg xmlns="http://www.w3.org/2000/svg" width="1000" height="1000" viewBox="0 0 1000 1000"><path fill="#060606" d="M883.801 229.989h-767.645c-22.924 0-41.428-13.603-41.428-36.008 0-22.358 18.504-35.961 41.428-35.961h767.645c22.877 0 41.45 13.603 41.45 35.961 0 22.406-18.573 36.008-41.45 36.008zm-119.057 164.741h-601.338c-22.877 0-41.45-12.727-41.45-35.074 0-22.405 18.573-36.951 41.45-36.951h601.338c22.923 0 41.45 14.546 41.45 36.951 0 22.348-18.527 35.074-41.45 35.074zm71.669 142.706h-437.079c-22.9 0-41.428-14.591-41.428-36.938 0-22.405 18.527-36.019 41.428-36.019h437.079c22.923 0 41.496 13.613 41.496 36.019 0 22.347-18.573 36.938-41.496 36.938zm-72.083 164.443h-270.497c-22.877 0-41.45-13.671-41.45-36.019 0-22.417 18.573-36.939 41.45-36.939h270.497c22.923 0 41.496 14.522 41.496 36.939 0 22.348-18.573 36.019-41.496 36.019zm-209.507 141.082h-133.234c-22.854 0-41.45-12.728-41.45-35.121 0-22.416 18.597-36.893 41.45-36.893h133.234c22.877 0 41.45 14.477 41.45 36.893 0 22.393-18.573 35.121-41.45 35.121z"/></svg>