<svg xmlns="http://www.w3.org/2000/svg" width="1000" height="1000" viewBox="0 0 1000 1000"><path fill="#060606" d="M628.119 651.844c16.934-15.766 28.67-36.934 32.514-60.793 29.414-17.563 49.178-49.602 49.178-86.35 0-55.543-44.994-100.589-100.539-100.589-7.689 0-15.105.966-22.303 2.558 2.387-10.855 3.691-22.083 3.691-33.648 0-86.924-70.396-157.354-157.269-157.354-82.284 0-149.665 63.165-156.677 143.604-6.13-.948-12.361-1.592-18.797-1.592-68.042 0-123.163 55.121-123.163 123.146 0 68.042 55.121 123.164 123.163 123.164 3.421 0 7.654 0 12.48.033-4.183 7.4-6.739 15.766-6.739 24.826 0 8.84 2.489 17.053 6.485 24.334h-12.227c-95.171 0-172.357-77.17-172.357-172.357 0-86.992 64.537-158.709 148.294-170.427 28.399-83.047 106.907-142.809 199.538-142.809 110.328 0 200.74 84.773 210.037 192.713 65.52 15.461 114.324 74.155 114.324 144.398 0 75.613-56.578 137.863-129.633 147.143zm-89.515 1.525c-1.168 0-2.354-.119-3.488-.152-.609.033-1.186.152-1.795.152h-278.604c-13.971 0-25.283-11.008-25.283-24.521 0-13.547 11.313-27.756 25.283-27.756l193.355.203h90.531c16.918 0 33.514-12.311 33.514-29.211s-16.596-28.467-33.514-28.467c-4.453 0-8.637.982-12.395 2.691-1.033.611-2.033 1.221-3.168 1.678-.305.186-.609.338-.914.541l-.119-.203c-2.658.965-5.436 1.576-8.365 1.576-13.513 0-24.453-10.939-24.453-24.453 0-11.297 7.772-20.779 18.238-23.523 9.602-4.233 20.033-6.621 31.176-6.773 54.445-.729 81.98 35.392 81.98 79.101.001 43.707-38.27 79.117-81.979 79.117zm299.009.49c-1.066 0-2.133-.102-3.184-.152-.541.051-1.084.152-1.643.152h-66.553c-12.75 0-23.115-12.209-23.115-24.588s10.365-24.59 23.115-24.59l1.863.525h69.516c15.494 0 32.361-8.213 32.361-23.674s-16.867-27.992-32.361-27.992c-4.064 0-7.875.881-11.346 2.438-.914.576-1.863 1.152-2.846 1.525-.305.186-.609.305-.881.49l-.117-.186c-2.389.914-4.945 1.455-7.604 1.455-12.346 0-22.354-10.025-22.354-22.354 0-10.363 7.078-19 16.68-21.506 8.756-3.844 18.307-7.281 28.467-7.281 39.947 0 77.746 20.457 76.678 73.41-.826 39.934-36.728 72.328-76.676 72.328zm-162.4 178.895c-10.16 0-19.729-2.354-28.482-6.199-9.586-2.506-16.664-11.158-16.664-21.506 0-12.379 10.008-22.354 22.336-22.354 2.658 0 5.217.525 7.654 1.406 0-.035.035-.119.086-.152.287.152.559.305.863.457 1.033.424 1.947.998 2.895 1.559 3.422 1.574 7.283 2.438 11.313 2.438 15.496 0 28.061-9.279 28.061-24.74s-12.564-24.742-28.061-24.742h-98.607l-292.542.525c-1.862 0-3.606-.271-5.317-.678-37.476-2.709-67.043-43.674-67.043-81.826 0-14.377 4.251-27.789 11.532-39.051 13.209 7.57 26.909 14.039 41.27 19.035-5.216 5.096-8.501 12.176-8.501 20.016 0 15.275 12.227 30.889 27.416 31.227l.644-.084h69.905l1.439-.373c1.372 0 2.709.152 3.996.373h310.964c.576 0 1.102.119 1.643.152 1.102-.033 2.135-.152 3.201-.152 39.965 0 72.377 32.412 72.377 72.344-.001 39.928-32.413 72.325-72.378 72.325z"/></svg>