<svg xmlns="http://www.w3.org/2000/svg" width="1000" height="1000" viewBox="0 0 1000 1000"><path fill="#040000" d="M167.646 907.335l-86.327-459.314 211.056 2.218 3.251 460.891-127.98-3.795zm694.002-322.7s41.021 21.864 37.368 53.053c-3.606 31.199-60.467 56.374-60.467 56.374s41.712 25.126 36.183 54.439c-5.481 29.468-52.019 52.019-52.019 52.019s23.098 34.309 15.338 54.986c-11.045 29.266-26.549 54.783-98.059 54.783-71.477 0-263.077.984-263.077.984l-131.289-52.02s.143-267.074 1.875-383.699c5.527-36.717 138.893-136.615 148.015-208.138 9.289-71.521-12.231-113.718-4.982-137.504 7.402-23.939 26.157-42.007 53.75-40.275 27.546 1.875 81.632 73.396 98.167 174.173 16.396 100.944-19.585 190.914-19.585 190.914s197.081-2.954 232.076.7c34.795 3.749 62.377 54.783 64.25 78.57 1.736 23.94-57.544 50.641-57.544 50.641z"/></svg>