<svg xmlns="http://www.w3.org/2000/svg" width="1000" height="1000" viewBox="0 0 1000 1000"><path fill="#070404" d="M499.591 67.359c-238.011 0-431.203 193.19-431.203 431.22 0 238.036 193.191 430.94 431.203 430.94 238 0 430.938-192.904 430.938-430.94 0-238.029-192.938-431.22-430.938-431.22zm-245.243 664.968l-64.437-334.283 157.741 1.777 2.522 335.438-95.826-2.932zm519.341-241.651s30.86 16.458 27.952 39.907c-2.714 23.208-45.07 42.165-45.07 42.165s31.124 18.69 26.991 40.771c-3.998 21.851-38.993 38.778-38.993 38.778s17.432 25.694 11.484 41.252c-8.266 21.862-19.749 40.999-73.471 40.999-53.408 0-196.747.71-196.747.71l-98.278-38.802s.193-199.908 1.623-287.144c4-27.499 79.993-102.338 86.782-155.772 6.966-53.625-9.3-85.195-3.629-103.015 5.43-17.792 43.271-31.546 63.993-30.189 20.53 1.357 61.085 54.983 73.483 130.525 12.204 75.484-14.92 142.667-14.92 142.667s147.674-2.032 173.826.684c26.152 2.704 46.681 40.772 48.04 58.815 1.285 17.827-43.066 37.649-43.066 37.649z"/></svg>