<svg xmlns="http://www.w3.org/2000/svg" width="1000" height="1000" viewBox="0 0 1000 1000"><g fill="#050404"><path d="M906.723 628.784c.367-2.147.855-4.21 1.115-6.426-.252.757-.803 4.332-1.115 6.426zM906.723 628.784l-.123.702-.029.313.152-1.015zM781.363 364.994c-5.775-.52-17.213-1.696-73.261-2.33-.146-19.146-1.811-37.926-4.79-55.674-16.976-103.271-78.693-210.821-164.72-219.943-2.354-.122-14.043-.779-14.043-.779-62.496 0-115.365 40.126-134.786 101.996l.244-.512c-3.958 12.469-6.066 25.992-6.066 39.882 0 14.279 2.109 27.145 3.866 38.437 1.711 10.696 3.231 20.72 3.231 31.798 0 3.438-.145 6.792-.39 10.268-6.41 10.681-25.976 30.37-36.779 41.425-3.866 3.988-7.823 7.968-11.59 11.834-1.521-.146-2.941-.146-4.5-.146l-156.408-.122c-29.689 0-57.851 13.126-76.875 35.871-15.311 18.145-23.432 40.913-23.432 64.307 0 5.806.542 11.72 1.566 17.511l62.504 351.644c8.458 47.827 50.173 82.704 98.794 82.704l93.209-.145c24.311 0 46.559-8.756 63.925-23.135 16.098 6.938 33.701 14.646 33.701 14.646 12.469 5.4 25.869 8.243 39.469 8.365l206.726.779c37.658 0 136.697.123 174.791-91.818.106-.397 9.244-44.512 9.244-44.512 0-2.59-.145-5.279-.244-7.869 13.354-15.678 22.256-34.189 26.113-54.779.734-3.592.489-.779.734-4.5l1.328-16.725c0-7.579-.786-15.066-2.199-22.248 7.724-12.171 13.103-26.106 15.875-41.738.253-2.604 2.018-20.65 2.018-20.65 0-10.78-1.414-21.347-4.248-31.371 7.426-13.5 11.969-28.023 13.391-43.724 0-.787.24-2.2.24-3.736v-.122l.004-2.322c0-.467-.029-.765.001-1.039.047-.237.047-.52.047-.749l-.064.306.013-.459v-.626c0-.909.096-2.444.096-2.444-.002-67.792-56.185-149.197-136.735-157.556zm-444.317 447.832l-93.271.123-62.496-351.644 156.4.153-.633 351.368zm480.753-288.078c-1.657 18.627-66.507 42.693-66.507 42.693s59.96 18.779 56.973 43.213c-2.835 24.418-68.661 42.692-68.661 42.692s57.216 19.681 52.861 42.693c-4.348 23.034-59.027 31.4-59.027 31.4s36.771 37.804 30.713 53.87c-8.61 23.035-26.992 32.181-83.193 32.181-56.094 0-206.191-.787-206.191-.787l-86.417-37.681s-1.956-215.559-.542-307.133c4.4-28.681 94.447-85.813 101.629-141.876 7.196-56.201-9.78-89.137-4.004-107.917 5.822-18.634 20.491-32.921 42.104-31.5 21.568 1.421 64.017 57.492 77.028 136.605 12.865 79.075-15.457 139.279-15.457 139.279s154.598-.634 181.988 2.186c27.29 2.828 48.361 41.296 46.703 60.082z"/></g></svg>