<svg xmlns="http://www.w3.org/2000/svg" width="1000" height="1000" viewBox="0 0 1000 1000"><path fill-rule="evenodd" clip-rule="evenodd" fill="#070505" d="M917.268 817.715c-13.886 158.095-116.141 76.55-116.141 76.55l-193.556-152.637c-51.212 28.799-109.278 46.565-172.133 46.565-195.768 0-354.371-158.755-354.371-354.371 0-195.777 158.603-354.381 354.371-354.381 195.787 0 354.38 158.604 354.38 354.381 0 78.128-26.016 149.862-68.871 208.441l196.321 175.452zm-481.83-634.298c-138.219 0-250.409 112.021-250.409 250.405 0 138.277 112.19 250.413 250.409 250.413 138.233 0 250.414-112.136 250.414-250.413 0-138.384-112.181-250.405-250.414-250.405zm63.881 418.453h-104.653v-104.52h-104.475v-104.626h104.475v-104.484h104.654v104.483h104.649v104.627h-104.65v104.52z"/></svg>