<svg xmlns="http://www.w3.org/2000/svg" width="1000" height="1000" viewBox="0 0 1000 1000"><path fill-rule="evenodd" clip-rule="evenodd" fill="#070505" d="M909.137 811.454c-13.606 155.005-113.854 75.055-113.854 75.055l-189.773-149.655c-50.212 28.236-107.139 45.655-168.792 45.655-191.941 0-347.45-155.652-347.45-347.446 0-191.951 155.509-347.455 347.45-347.455 191.947 0 347.478 155.503 347.478 347.455 0 76.603-25.534 146.935-67.517 204.368l192.458 172.023zm-472.419-621.901c-135.671 0-245.511 109.831-245.511 245.511 0 135.575 109.84 245.521 245.511 245.521 135.527 0 245.551-109.945 245.551-245.521 0-135.68-110.024-245.511-245.551-245.511zm-142.408 205.216h307.492v102.582h-307.492v-102.582z"/></svg>